<svg width="26" height="20" viewBox="0 0 26 20" fill="none" xmlns="http://www.w3.org/2000/svg">
<path d="M22.0243 1.67503C20.3193 0.882246 18.5155 0.318938 16.6605 0C16.4294 0.415108 16.1595 0.973416 15.9733 1.41758C13.9733 1.11874 11.9918 1.11874 10.0285 1.41758C9.84251 0.973508 9.56646 0.415108 9.33327 0C7.4765 0.319092 5.6711 0.883831 3.96519 1.67917C0.570573 6.77677 -0.349681 11.7475 0.110388 16.648C2.36193 18.3188 4.5439 19.3338 6.68911 19.998C7.22223 19.2694 7.69351 18.4982 8.09807 17.692C7.32785 17.4006 6.58534 17.0415 5.87934 16.6189C6.06513 16.4822 6.24654 16.3395 6.42331 16.1914C10.7013 18.1797 15.3496 18.1797 19.5766 16.1914C19.7543 16.3385 19.9355 16.4811 20.1206 16.6189C19.4134 17.0426 18.6695 17.4025 17.8977 17.6942C18.3046 18.5035 18.7751 19.2755 19.3068 20C21.4539 19.3358 23.6379 18.3209 25.8895 16.648C26.4293 10.9672 24.9672 6.042 22.0243 1.67503ZM8.68093 13.6343C7.39668 13.6343 6.34348 12.4429 6.34348 10.9922C6.34348 9.54139 7.37423 8.348 8.68093 8.348C9.98774 8.348 11.0408 9.53923 11.0184 10.9922C11.0204 12.4429 9.98774 13.6343 8.68093 13.6343ZM17.3189 13.6343C16.0347 13.6343 14.9815 12.4429 14.9815 10.9922C14.9815 9.54139 16.0123 8.348 17.3189 8.348C18.6257 8.348 19.6789 9.53923 19.6563 10.9922C19.6563 12.4429 18.6257 13.6343 17.3189 13.6343Z" fill="#DDDDDD"/>
</svg>
