<svg width="254" height="68" viewBox="0 0 254 68" fill="none" xmlns="http://www.w3.org/2000/svg">
<path d="M91.9194 56.379L91.1914 63.001H90.0014L91.1914 52.711L95.1114 59.809L99.0314 52.711L100.221 63.001H99.0314L98.3034 56.379L95.1114 62.091L91.9194 56.379ZM102.329 61.013C102.329 61.2556 102.385 61.4656 102.497 61.643C102.619 61.8203 102.782 61.9556 102.987 62.049C103.202 62.133 103.445 62.175 103.715 62.175C104.061 62.175 104.369 62.105 104.639 61.965C104.919 61.825 105.139 61.629 105.297 61.377C105.465 61.1156 105.549 60.817 105.549 60.481L105.773 61.321C105.773 61.7316 105.647 62.0723 105.395 62.343C105.153 62.6136 104.849 62.8143 104.485 62.945C104.131 63.0756 103.776 63.141 103.421 63.141C103.029 63.141 102.661 63.0616 102.315 62.903C101.979 62.735 101.709 62.497 101.503 62.189C101.298 61.881 101.195 61.5076 101.195 61.069C101.195 60.4436 101.415 59.9443 101.853 59.571C102.301 59.1883 102.922 58.997 103.715 58.997C104.182 58.997 104.569 59.053 104.877 59.165C105.195 59.2676 105.447 59.389 105.633 59.529C105.82 59.6596 105.946 59.767 106.011 59.851V60.509C105.685 60.285 105.349 60.1263 105.003 60.033C104.658 59.9303 104.289 59.879 103.897 59.879C103.533 59.879 103.235 59.9256 103.001 60.019C102.777 60.1123 102.609 60.243 102.497 60.411C102.385 60.579 102.329 60.7796 102.329 61.013ZM102.161 58.045L101.615 57.219C101.858 57.0416 102.189 56.8643 102.609 56.687C103.039 56.5096 103.552 56.421 104.149 56.421C104.653 56.421 105.092 56.5003 105.465 56.659C105.848 56.8083 106.142 57.0276 106.347 57.317C106.562 57.6063 106.669 57.961 106.669 58.381V63.001H105.549V58.535C105.549 58.311 105.512 58.129 105.437 57.989C105.363 57.8396 105.255 57.723 105.115 57.639C104.985 57.555 104.831 57.4943 104.653 57.457C104.476 57.4196 104.289 57.401 104.093 57.401C103.776 57.401 103.487 57.4383 103.225 57.513C102.973 57.5876 102.759 57.6763 102.581 57.779C102.404 57.8816 102.264 57.9703 102.161 58.045ZM108.496 52.081H109.616V63.001H108.496V52.081ZM111.996 56.561H113.396L110.596 59.221L113.676 63.001H112.276L109.196 59.221L111.996 56.561ZM114.732 53.901C114.732 53.6863 114.806 53.5043 114.956 53.355C115.114 53.2056 115.296 53.131 115.502 53.131C115.716 53.131 115.898 53.2056 116.048 53.355C116.197 53.5043 116.272 53.6863 116.272 53.901C116.272 54.1063 116.197 54.2883 116.048 54.447C115.898 54.5963 115.716 54.671 115.502 54.671C115.296 54.671 115.114 54.5963 114.956 54.447C114.806 54.2883 114.732 54.1063 114.732 53.901ZM114.942 56.561H116.062V63.001H114.942V56.561ZM122.498 59.081C122.498 58.549 122.382 58.1476 122.148 57.877C121.915 57.6063 121.574 57.471 121.126 57.471C120.8 57.471 120.51 57.541 120.258 57.681C120.016 57.8116 119.824 57.9983 119.684 58.241C119.554 58.4836 119.488 58.7636 119.488 59.081V63.001H118.368V56.561H119.488V57.569C119.703 57.177 119.969 56.8876 120.286 56.701C120.613 56.5143 120.986 56.421 121.406 56.421C122.088 56.421 122.624 56.6496 123.016 57.107C123.418 57.555 123.618 58.1663 123.618 58.941V63.001H122.498V59.081ZM125.29 63.421H126.424C126.424 63.729 126.508 64.0136 126.676 64.275C126.844 64.5456 127.082 64.7603 127.39 64.919C127.698 65.087 128.062 65.171 128.482 65.171C128.808 65.171 129.13 65.0916 129.448 64.933C129.765 64.7743 130.026 64.5223 130.232 64.177C130.446 63.841 130.554 63.4023 130.554 62.861V56.561H131.674V62.861C131.674 63.5983 131.52 64.2143 131.212 64.709C130.904 65.213 130.507 65.591 130.022 65.843C129.536 66.095 129.023 66.221 128.482 66.221C127.856 66.221 127.301 66.1043 126.816 65.871C126.34 65.6376 125.966 65.3063 125.696 64.877C125.425 64.457 125.29 63.9716 125.29 63.421ZM125.164 59.781C125.164 59.081 125.308 58.4836 125.598 57.989C125.887 57.485 126.274 57.0976 126.76 56.827C127.245 56.5563 127.777 56.421 128.356 56.421C128.897 56.421 129.368 56.5563 129.77 56.827C130.171 57.0976 130.484 57.485 130.708 57.989C130.941 58.4836 131.058 59.081 131.058 59.781C131.058 60.4716 130.941 61.069 130.708 61.573C130.484 62.077 130.171 62.4643 129.77 62.735C129.368 63.0056 128.897 63.141 128.356 63.141C127.777 63.141 127.245 63.0056 126.76 62.735C126.274 62.4643 125.887 62.077 125.598 61.573C125.308 61.069 125.164 60.4716 125.164 59.781ZM126.298 59.781C126.298 60.2756 126.396 60.6956 126.592 61.041C126.797 61.3863 127.068 61.6476 127.404 61.825C127.74 62.0023 128.104 62.091 128.496 62.091C128.822 62.091 129.144 62.0023 129.462 61.825C129.779 61.6476 130.04 61.3863 130.246 61.041C130.451 60.6956 130.554 60.2756 130.554 59.781C130.554 59.4076 130.493 59.081 130.372 58.801C130.25 58.5116 130.087 58.269 129.882 58.073C129.686 57.877 129.466 57.7276 129.224 57.625C128.981 57.5223 128.738 57.471 128.496 57.471C128.104 57.471 127.74 57.5596 127.404 57.737C127.068 57.9143 126.797 58.1756 126.592 58.521C126.396 58.8663 126.298 59.2863 126.298 59.781ZM146.697 60.411L149.245 53.201H150.575L146.725 63.491L143.785 55.875L140.845 63.491L136.995 53.201H138.325L140.929 60.411L143.785 52.711L146.697 60.411ZM153.14 63.141C152.542 63.141 152.01 63.001 151.544 62.721C151.086 62.4316 150.727 62.035 150.466 61.531C150.214 61.027 150.088 60.4436 150.088 59.781C150.088 59.109 150.218 58.521 150.48 58.017C150.75 57.513 151.124 57.121 151.6 56.841C152.085 56.561 152.645 56.421 153.28 56.421C153.914 56.421 154.456 56.5563 154.904 56.827C155.361 57.0883 155.711 57.4663 155.954 57.961C156.196 58.4556 156.318 59.0436 156.318 59.725C156.318 59.7903 156.313 59.8603 156.304 59.935C156.304 60.0003 156.304 60.0423 156.304 60.061H150.802V59.109H155.422L154.974 59.753C155.002 59.7063 155.03 59.6363 155.058 59.543C155.086 59.4403 155.1 59.3563 155.1 59.291C155.1 58.9083 155.02 58.577 154.862 58.297C154.712 58.017 154.502 57.7976 154.232 57.639C153.961 57.4803 153.644 57.401 153.28 57.401C152.85 57.401 152.482 57.4943 152.174 57.681C151.875 57.8583 151.642 58.1196 151.474 58.465C151.315 58.801 151.231 59.2163 151.222 59.711C151.222 60.215 151.301 60.6443 151.46 60.999C151.618 61.3536 151.852 61.6243 152.16 61.811C152.468 61.9976 152.841 62.091 153.28 62.091C153.718 62.091 154.106 61.9976 154.442 61.811C154.778 61.615 155.062 61.321 155.296 60.929L156.206 61.503C155.87 62.0443 155.445 62.455 154.932 62.735C154.428 63.0056 153.83 63.141 153.14 63.141ZM158.903 52.081V63.001H157.783V52.081H158.903ZM164.293 59.781C164.293 60.4716 164.148 61.069 163.859 61.573C163.569 62.077 163.182 62.4643 162.697 62.735C162.221 63.0056 161.689 63.141 161.101 63.141C160.569 63.141 160.097 63.0056 159.687 62.735C159.285 62.4643 158.968 62.077 158.735 61.573C158.511 61.069 158.399 60.4716 158.399 59.781C158.399 59.081 158.511 58.4836 158.735 57.989C158.968 57.485 159.285 57.0976 159.687 56.827C160.097 56.5563 160.569 56.421 161.101 56.421C161.689 56.421 162.221 56.5563 162.697 56.827C163.182 57.0976 163.569 57.485 163.859 57.989C164.148 58.4836 164.293 59.081 164.293 59.781ZM163.159 59.781C163.159 59.2863 163.056 58.8663 162.851 58.521C162.655 58.1756 162.389 57.9143 162.053 57.737C161.726 57.5596 161.362 57.471 160.961 57.471C160.634 57.471 160.312 57.5596 159.995 57.737C159.677 57.9143 159.416 58.1756 159.211 58.521C159.005 58.8663 158.903 59.2863 158.903 59.781C158.903 60.2756 159.005 60.6956 159.211 61.041C159.416 61.3863 159.677 61.6476 159.995 61.825C160.312 62.0023 160.634 62.091 160.961 62.091C161.362 62.091 161.726 62.0023 162.053 61.825C162.389 61.6476 162.655 61.3863 162.851 61.041C163.056 60.6956 163.159 60.2756 163.159 59.781ZM168.329 58.171V57.401C168.646 57.401 168.926 57.359 169.169 57.275C169.412 57.1816 169.617 57.0603 169.785 56.911C169.953 56.7523 170.079 56.5703 170.163 56.365C170.256 56.1596 170.303 55.9403 170.303 55.707C170.303 55.399 170.247 55.1283 170.135 54.895C170.023 54.6523 169.855 54.4656 169.631 54.335C169.416 54.2043 169.146 54.139 168.819 54.139C168.362 54.139 167.974 54.2836 167.657 54.573C167.34 54.853 167.181 55.2076 167.181 55.637H166.047C166.047 55.1236 166.164 54.6756 166.397 54.293C166.64 53.9103 166.966 53.6116 167.377 53.397C167.797 53.173 168.273 53.061 168.805 53.061C169.365 53.061 169.846 53.1823 170.247 53.425C170.658 53.6676 170.97 53.985 171.185 54.377C171.409 54.769 171.521 55.1983 171.521 55.665C171.521 56.1223 171.386 56.5423 171.115 56.925C170.844 57.3076 170.471 57.611 169.995 57.835C169.519 58.059 168.964 58.171 168.329 58.171ZM168.749 63.141C168.273 63.141 167.844 63.071 167.461 62.931C167.078 62.791 166.752 62.5996 166.481 62.357C166.21 62.105 166 61.8156 165.851 61.489C165.702 61.153 165.627 60.7936 165.627 60.411H166.831C166.831 60.719 166.91 60.9943 167.069 61.237C167.237 61.4796 167.466 61.671 167.755 61.811C168.044 61.951 168.376 62.021 168.749 62.021C169.122 62.021 169.444 61.951 169.715 61.811C169.995 61.6616 170.21 61.4563 170.359 61.195C170.508 60.9336 170.583 60.6256 170.583 60.271C170.583 59.9723 170.522 59.711 170.401 59.487C170.289 59.2536 170.13 59.0623 169.925 58.913C169.72 58.7543 169.482 58.6376 169.211 58.563C168.94 58.4883 168.646 58.451 168.329 58.451V57.681C168.805 57.681 169.248 57.7323 169.659 57.835C170.079 57.9376 170.448 58.101 170.765 58.325C171.092 58.5396 171.344 58.8196 171.521 59.165C171.708 59.5103 171.801 59.9256 171.801 60.411C171.801 60.9616 171.666 61.4423 171.395 61.853C171.134 62.2636 170.774 62.581 170.317 62.805C169.86 63.029 169.337 63.141 168.749 63.141ZM178.181 61.013C178.181 61.2556 178.237 61.4656 178.349 61.643C178.47 61.8203 178.634 61.9556 178.839 62.049C179.054 62.133 179.296 62.175 179.567 62.175C179.912 62.175 180.22 62.105 180.491 61.965C180.771 61.825 180.99 61.629 181.149 61.377C181.317 61.1156 181.401 60.817 181.401 60.481L181.625 61.321C181.625 61.7316 181.499 62.0723 181.247 62.343C181.004 62.6136 180.701 62.8143 180.337 62.945C179.982 63.0756 179.628 63.141 179.273 63.141C178.881 63.141 178.512 63.0616 178.167 62.903C177.831 62.735 177.56 62.497 177.355 62.189C177.15 61.881 177.047 61.5076 177.047 61.069C177.047 60.4436 177.266 59.9443 177.705 59.571C178.153 59.1883 178.774 58.997 179.567 58.997C180.034 58.997 180.421 59.053 180.729 59.165C181.046 59.2676 181.298 59.389 181.485 59.529C181.672 59.6596 181.798 59.767 181.863 59.851V60.509C181.536 60.285 181.2 60.1263 180.855 60.033C180.51 59.9303 180.141 59.879 179.749 59.879C179.385 59.879 179.086 59.9256 178.853 60.019C178.629 60.1123 178.461 60.243 178.349 60.411C178.237 60.579 178.181 60.7796 178.181 61.013ZM178.013 58.045L177.467 57.219C177.71 57.0416 178.041 56.8643 178.461 56.687C178.89 56.5096 179.404 56.421 180.001 56.421C180.505 56.421 180.944 56.5003 181.317 56.659C181.7 56.8083 181.994 57.0276 182.199 57.317C182.414 57.6063 182.521 57.961 182.521 58.381V63.001H181.401V58.535C181.401 58.311 181.364 58.129 181.289 57.989C181.214 57.8396 181.107 57.723 180.967 57.639C180.836 57.555 180.682 57.4943 180.505 57.457C180.328 57.4196 180.141 57.401 179.945 57.401C179.628 57.401 179.338 57.4383 179.077 57.513C178.825 57.5876 178.61 57.6763 178.433 57.779C178.256 57.8816 178.116 57.9703 178.013 58.045ZM188.88 61.027C189.011 61.223 189.16 61.405 189.328 61.573C189.496 61.741 189.688 61.8763 189.902 61.979C190.126 62.0723 190.369 62.119 190.63 62.119C190.948 62.119 191.195 62.049 191.372 61.909C191.559 61.7596 191.652 61.559 191.652 61.307C191.652 61.083 191.578 60.8963 191.428 60.747C191.288 60.5883 191.106 60.4576 190.882 60.355C190.658 60.243 190.42 60.1403 190.168 60.047C189.888 59.935 189.604 59.8043 189.314 59.655C189.034 59.4963 188.796 59.2956 188.6 59.053C188.414 58.801 188.32 58.4883 188.32 58.115C188.32 57.7323 188.418 57.415 188.614 57.163C188.82 56.911 189.081 56.7243 189.398 56.603C189.725 56.4816 190.061 56.421 190.406 56.421C190.752 56.421 191.074 56.477 191.372 56.589C191.68 56.701 191.951 56.8503 192.184 57.037C192.418 57.2236 192.6 57.4383 192.73 57.681L191.834 58.255C191.657 58.0123 191.433 57.8116 191.162 57.653C190.901 57.4943 190.602 57.415 190.266 57.415C190.033 57.415 189.832 57.4663 189.664 57.569C189.496 57.6716 189.412 57.8303 189.412 58.045C189.412 58.213 189.478 58.3623 189.608 58.493C189.739 58.6236 189.907 58.7403 190.112 58.843C190.318 58.9456 190.532 59.0436 190.756 59.137C191.13 59.2863 191.47 59.4496 191.778 59.627C192.086 59.795 192.329 60.0003 192.506 60.243C192.693 60.4856 192.786 60.7983 192.786 61.181C192.786 61.741 192.581 62.2076 192.17 62.581C191.769 62.9543 191.237 63.141 190.574 63.141C190.145 63.141 189.758 63.0663 189.412 62.917C189.067 62.7583 188.773 62.5576 188.53 62.315C188.297 62.0723 188.12 61.825 187.998 61.573L188.88 61.027ZM194.765 61.013C194.765 61.2556 194.821 61.4656 194.933 61.643C195.054 61.8203 195.218 61.9556 195.423 62.049C195.638 62.133 195.88 62.175 196.151 62.175C196.496 62.175 196.804 62.105 197.075 61.965C197.355 61.825 197.574 61.629 197.733 61.377C197.901 61.1156 197.985 60.817 197.985 60.481L198.209 61.321C198.209 61.7316 198.083 62.0723 197.831 62.343C197.588 62.6136 197.285 62.8143 196.921 62.945C196.566 63.0756 196.212 63.141 195.857 63.141C195.465 63.141 195.096 63.0616 194.751 62.903C194.415 62.735 194.144 62.497 193.939 62.189C193.734 61.881 193.631 61.5076 193.631 61.069C193.631 60.4436 193.85 59.9443 194.289 59.571C194.737 59.1883 195.358 58.997 196.151 58.997C196.618 58.997 197.005 59.053 197.313 59.165C197.63 59.2676 197.882 59.389 198.069 59.529C198.256 59.6596 198.382 59.767 198.447 59.851V60.509C198.12 60.285 197.784 60.1263 197.439 60.033C197.094 59.9303 196.725 59.879 196.333 59.879C195.969 59.879 195.67 59.9256 195.437 60.019C195.213 60.1123 195.045 60.243 194.933 60.411C194.821 60.579 194.765 60.7796 194.765 61.013ZM194.597 58.045L194.051 57.219C194.294 57.0416 194.625 56.8643 195.045 56.687C195.474 56.5096 195.988 56.421 196.585 56.421C197.089 56.421 197.528 56.5003 197.901 56.659C198.284 56.8083 198.578 57.0276 198.783 57.317C198.998 57.6063 199.105 57.961 199.105 58.381V63.001H197.985V58.535C197.985 58.311 197.948 58.129 197.873 57.989C197.798 57.8396 197.691 57.723 197.551 57.639C197.42 57.555 197.266 57.4943 197.089 57.457C196.912 57.4196 196.725 57.401 196.529 57.401C196.212 57.401 195.922 57.4383 195.661 57.513C195.409 57.5876 195.194 57.6763 195.017 57.779C194.84 57.8816 194.7 57.9703 194.597 58.045ZM200.511 56.561H203.731V57.611H200.511V56.561ZM203.619 53.425C203.526 53.2663 203.414 53.1683 203.283 53.131C203.162 53.0843 203.045 53.061 202.933 53.061C202.793 53.061 202.672 53.103 202.569 53.187C202.476 53.2616 202.401 53.3923 202.345 53.579C202.289 53.7656 202.261 54.013 202.261 54.321V63.001H201.141V54.181C201.141 53.6676 201.216 53.2476 201.365 52.921C201.515 52.5943 201.725 52.3516 201.995 52.193C202.275 52.025 202.611 51.941 203.003 51.941C203.209 51.941 203.391 51.969 203.549 52.025C203.708 52.081 203.843 52.151 203.955 52.235C204.077 52.319 204.17 52.4076 204.235 52.501L203.619 53.425ZM207.499 63.141C206.902 63.141 206.37 63.001 205.903 62.721C205.446 62.4316 205.086 62.035 204.825 61.531C204.573 61.027 204.447 60.4436 204.447 59.781C204.447 59.109 204.578 58.521 204.839 58.017C205.11 57.513 205.483 57.121 205.959 56.841C206.444 56.561 207.004 56.421 207.639 56.421C208.274 56.421 208.815 56.5563 209.263 56.827C209.72 57.0883 210.07 57.4663 210.313 57.961C210.556 58.4556 210.677 59.0436 210.677 59.725C210.677 59.7903 210.672 59.8603 210.663 59.935C210.663 60.0003 210.663 60.0423 210.663 60.061H205.161V59.109H209.781L209.333 59.753C209.361 59.7063 209.389 59.6363 209.417 59.543C209.445 59.4403 209.459 59.3563 209.459 59.291C209.459 58.9083 209.38 58.577 209.221 58.297C209.072 58.017 208.862 57.7976 208.591 57.639C208.32 57.4803 208.003 57.401 207.639 57.401C207.21 57.401 206.841 57.4943 206.533 57.681C206.234 57.8583 206.001 58.1196 205.833 58.465C205.674 58.801 205.59 59.2163 205.581 59.711C205.581 60.215 205.66 60.6443 205.819 60.999C205.978 61.3536 206.211 61.6243 206.519 61.811C206.827 61.9976 207.2 62.091 207.639 62.091C208.078 62.091 208.465 61.9976 208.801 61.811C209.137 61.615 209.422 61.321 209.655 60.929L210.565 61.503C210.229 62.0443 209.804 62.455 209.291 62.735C208.787 63.0056 208.19 63.141 207.499 63.141ZM213.332 56.561V63.001H212.212V56.561H213.332ZM215.278 57.793C215.129 57.681 214.993 57.6016 214.872 57.555C214.751 57.499 214.597 57.471 214.41 57.471C214.13 57.471 213.911 57.541 213.752 57.681C213.593 57.821 213.481 58.0123 213.416 58.255C213.36 58.4976 213.332 58.773 213.332 59.081H212.828C212.828 58.5676 212.917 58.115 213.094 57.723C213.281 57.3216 213.519 57.0043 213.808 56.771C214.097 56.5376 214.391 56.421 214.69 56.421C214.923 56.421 215.138 56.4536 215.334 56.519C215.539 56.575 215.726 56.6916 215.894 56.869L215.278 57.793ZM222.258 66.081H221.138V56.561H222.258V66.081ZM227.648 59.781C227.648 60.4716 227.504 61.069 227.214 61.573C226.925 62.077 226.538 62.4643 226.052 62.735C225.576 63.0056 225.044 63.141 224.456 63.141C223.924 63.141 223.453 63.0056 223.042 62.735C222.641 62.4643 222.324 62.077 222.09 61.573C221.866 61.069 221.754 60.4716 221.754 59.781C221.754 59.081 221.866 58.4836 222.09 57.989C222.324 57.485 222.641 57.0976 223.042 56.827C223.453 56.5563 223.924 56.421 224.456 56.421C225.044 56.421 225.576 56.5563 226.052 56.827C226.538 57.0976 226.925 57.485 227.214 57.989C227.504 58.4836 227.648 59.081 227.648 59.781ZM226.514 59.781C226.514 59.2863 226.412 58.8663 226.206 58.521C226.01 58.1756 225.744 57.9143 225.408 57.737C225.082 57.5596 224.718 57.471 224.316 57.471C223.99 57.471 223.668 57.5596 223.35 57.737C223.033 57.9143 222.772 58.1756 222.566 58.521C222.361 58.8663 222.258 59.2863 222.258 59.781C222.258 60.2756 222.361 60.6956 222.566 61.041C222.772 61.3863 223.033 61.6476 223.35 61.825C223.668 62.0023 223.99 62.091 224.316 62.091C224.718 62.091 225.082 62.0023 225.408 61.825C225.744 61.6476 226.01 61.3863 226.206 61.041C226.412 60.6956 226.514 60.2756 226.514 59.781ZM229.193 52.081H230.313V63.001H229.193V52.081ZM232.923 61.013C232.923 61.2556 232.979 61.4656 233.091 61.643C233.212 61.8203 233.376 61.9556 233.581 62.049C233.796 62.133 234.038 62.175 234.309 62.175C234.654 62.175 234.962 62.105 235.233 61.965C235.513 61.825 235.732 61.629 235.891 61.377C236.059 61.1156 236.143 60.817 236.143 60.481L236.367 61.321C236.367 61.7316 236.241 62.0723 235.989 62.343C235.746 62.6136 235.443 62.8143 235.079 62.945C234.724 63.0756 234.37 63.141 234.015 63.141C233.623 63.141 233.254 63.0616 232.909 62.903C232.573 62.735 232.302 62.497 232.097 62.189C231.892 61.881 231.789 61.5076 231.789 61.069C231.789 60.4436 232.008 59.9443 232.447 59.571C232.895 59.1883 233.516 58.997 234.309 58.997C234.776 58.997 235.163 59.053 235.471 59.165C235.788 59.2676 236.04 59.389 236.227 59.529C236.414 59.6596 236.54 59.767 236.605 59.851V60.509C236.278 60.285 235.942 60.1263 235.597 60.033C235.252 59.9303 234.883 59.879 234.491 59.879C234.127 59.879 233.828 59.9256 233.595 60.019C233.371 60.1123 233.203 60.243 233.091 60.411C232.979 60.579 232.923 60.7796 232.923 61.013ZM232.755 58.045L232.209 57.219C232.452 57.0416 232.783 56.8643 233.203 56.687C233.632 56.5096 234.146 56.421 234.743 56.421C235.247 56.421 235.686 56.5003 236.059 56.659C236.442 56.8083 236.736 57.0276 236.941 57.317C237.156 57.6063 237.263 57.961 237.263 58.381V63.001H236.143V58.535C236.143 58.311 236.106 58.129 236.031 57.989C235.956 57.8396 235.849 57.723 235.709 57.639C235.578 57.555 235.424 57.4943 235.247 57.457C235.07 57.4196 234.883 57.401 234.687 57.401C234.37 57.401 234.08 57.4383 233.819 57.513C233.567 57.5876 233.352 57.6763 233.175 57.779C232.998 57.8816 232.858 57.9703 232.755 58.045ZM239.663 59.781C239.663 60.229 239.757 60.6256 239.943 60.971C240.139 61.3163 240.401 61.5916 240.727 61.797C241.063 61.993 241.441 62.091 241.861 62.091C242.207 62.091 242.529 62.0396 242.827 61.937C243.135 61.825 243.401 61.6803 243.625 61.503C243.849 61.3163 244.008 61.1203 244.101 60.915V62.315C243.877 62.5763 243.555 62.7816 243.135 62.931C242.725 63.071 242.3 63.141 241.861 63.141C241.236 63.141 240.671 62.9963 240.167 62.707C239.663 62.4176 239.262 62.021 238.963 61.517C238.674 61.0036 238.529 60.425 238.529 59.781C238.529 59.1276 238.674 58.549 238.963 58.045C239.262 57.541 239.663 57.1443 240.167 56.855C240.671 56.5656 241.236 56.421 241.861 56.421C242.3 56.421 242.725 56.4956 243.135 56.645C243.555 56.785 243.877 56.9856 244.101 57.247V58.647C244.008 58.4323 243.849 58.2363 243.625 58.059C243.401 57.8816 243.135 57.7416 242.827 57.639C242.529 57.527 242.207 57.471 241.861 57.471C241.441 57.471 241.063 57.569 240.727 57.765C240.401 57.961 240.139 58.2363 239.943 58.591C239.757 58.9363 239.663 59.333 239.663 59.781ZM248.337 63.141C247.74 63.141 247.208 63.001 246.741 62.721C246.284 62.4316 245.924 62.035 245.663 61.531C245.411 61.027 245.285 60.4436 245.285 59.781C245.285 59.109 245.416 58.521 245.677 58.017C245.948 57.513 246.321 57.121 246.797 56.841C247.282 56.561 247.842 56.421 248.477 56.421C249.112 56.421 249.653 56.5563 250.101 56.827C250.558 57.0883 250.908 57.4663 251.151 57.961C251.394 58.4556 251.515 59.0436 251.515 59.725C251.515 59.7903 251.51 59.8603 251.501 59.935C251.501 60.0003 251.501 60.0423 251.501 60.061H245.999V59.109H250.619L250.171 59.753C250.199 59.7063 250.227 59.6363 250.255 59.543C250.283 59.4403 250.297 59.3563 250.297 59.291C250.297 58.9083 250.218 58.577 250.059 58.297C249.91 58.017 249.7 57.7976 249.429 57.639C249.158 57.4803 248.841 57.401 248.477 57.401C248.048 57.401 247.679 57.4943 247.371 57.681C247.072 57.8583 246.839 58.1196 246.671 58.465C246.512 58.801 246.428 59.2163 246.419 59.711C246.419 60.215 246.498 60.6443 246.657 60.999C246.816 61.3536 247.049 61.6243 247.357 61.811C247.665 61.9976 248.038 62.091 248.477 62.091C248.916 62.091 249.303 61.9976 249.639 61.811C249.975 61.615 250.26 61.321 250.493 60.929L251.403 61.503C251.067 62.0443 250.642 62.455 250.129 62.735C249.625 63.0056 249.028 63.141 248.337 63.141Z" fill="#EAEAEA"/>
<path d="M93.4669 25C93.4669 28.7115 92.1128 31.8044 89.4045 34.2787L92.3112 37.2549H88.9843L87.4784 35.7143C85.5406 36.9048 83.4627 37.5 81.2448 37.5C78.093 37.5 75.2563 36.3095 72.7348 33.9286C70.2367 31.5243 68.9877 28.5481 68.9877 25C68.9877 21.4519 70.2367 18.4874 72.7348 16.1064C75.2563 13.7021 78.093 12.5 81.2448 12.5C84.4667 12.5 87.3033 13.6905 89.7547 16.0714C92.2295 18.4524 93.4669 21.4286 93.4669 25ZM81.2448 34.7339C82.809 34.7339 84.2215 34.3838 85.4823 33.6835L80.2992 28.3613H83.6262L87.4434 32.2829C89.4045 30.3922 90.3851 27.9645 90.3851 25C90.3851 22.1522 89.4862 19.8179 87.6885 17.9972C85.9142 16.1531 83.7663 15.2311 81.2448 15.2311C78.8634 15.2311 76.7388 16.1531 74.8711 17.9972C73.0267 19.8413 72.1045 22.1755 72.1045 25C72.1045 27.8011 73.0267 30.1237 74.8711 31.9678C76.7388 33.8119 78.8634 34.7339 81.2448 34.7339Z" fill="white"/>
<path d="M112.197 19.0476H114.998V37.2549H112.197V32.8431C111.963 33.8469 111.263 34.8739 110.096 35.9244C108.928 36.9748 107.457 37.5 105.683 37.5C103.722 37.5 102.099 36.8697 100.815 35.6092C99.5311 34.3487 98.889 32.3996 98.889 29.7619V19.0476H101.691V29.6919C101.691 31.5359 102.088 32.8898 102.881 33.7535C103.675 34.6172 104.749 35.049 106.103 35.049C107.621 35.049 108.94 34.4655 110.061 33.2983C111.181 32.1078 111.893 30.824 112.197 29.4468V19.0476Z" fill="white"/>
<path d="M123.9 12.7451V15.3711H121.064V12.7451H123.9ZM123.9 19.0476V37.2549H121.064V19.0476H123.9Z" fill="white"/>
<path d="M133.069 12.7451V37.2549H130.232V12.7451H133.069Z" fill="white"/>
<path d="M142.07 12.7451V37.2549H139.233V12.7451H142.07Z" fill="white"/>
<path d="M167.041 37.2549L163.994 30.4272H153.067L150.021 37.2549H146.904L158.215 12.7451H158.846L170.122 37.2549H167.041ZM154.153 27.9762H162.908L158.531 18.1022L154.153 27.9762Z" fill="white"/>
<path d="M187.812 19.0476H190.614V37.2549H187.812V32.8431C187.579 33.8469 186.878 34.8739 185.711 35.9244C184.543 36.9748 183.073 37.5 181.298 37.5C179.337 37.5 177.715 36.8697 176.43 35.6092C175.146 34.3487 174.504 32.3996 174.504 29.7619V19.0476H177.306V29.6919C177.306 31.5359 177.703 32.8898 178.497 33.7535C179.29 34.6172 180.364 35.049 181.718 35.049C183.236 35.049 184.555 34.4655 185.676 33.2983C186.796 32.1078 187.509 30.824 187.812 29.4468V19.0476Z" fill="white"/>
<path d="M210.757 12.7451H213.559V37.2549H210.757V33.6835C210.267 34.8039 209.45 35.726 208.306 36.4496C207.162 37.1499 205.889 37.5 204.489 37.5C202.294 37.5 200.309 36.6713 198.535 35.014C196.761 33.3567 195.874 31.0691 195.874 28.1513C195.874 26.6573 196.142 25.3035 196.679 24.0896C197.216 22.8525 197.905 21.8721 198.745 21.1485C199.586 20.4015 200.496 19.8296 201.477 19.4328C202.481 19.0359 203.485 18.8375 204.489 18.8375C205.913 18.8375 207.197 19.176 208.341 19.8529C209.485 20.5299 210.29 21.4169 210.757 22.514V12.7451ZM200.566 33.2283C201.827 34.4421 203.251 35.049 204.839 35.049C206.426 35.049 207.827 34.4655 209.041 33.2983C210.255 32.1078 210.862 30.3922 210.862 28.1513C210.862 25.9104 210.255 24.2063 209.041 23.0392C207.827 21.8721 206.426 21.2885 204.839 21.2885C203.251 21.2885 201.827 21.8954 200.566 23.1092C199.306 24.3231 198.675 26.0037 198.675 28.1513C198.675 30.2988 199.306 31.9911 200.566 33.2283Z" fill="white"/>
<path d="M222.265 12.7451V15.3711H219.429V12.7451H222.265ZM222.265 19.0476V37.2549H219.429V19.0476H222.265Z" fill="white"/>
<path d="M234.025 35.014C234.819 35.014 235.624 34.8273 236.441 34.4538V36.8347C235.601 37.2549 234.562 37.465 233.325 37.465C230.967 37.465 229.788 36.1695 229.788 33.5784V21.3585H227.546V19.0476H229.788V15.8964H232.589V19.0476H236.406V21.3585H232.589V33.3333C232.589 34.4538 233.068 35.014 234.025 35.014Z" fill="white"/>
<path d="M250.813 23.3894C249.996 21.9421 248.782 21.2185 247.171 21.2185C246.284 21.2185 245.56 21.4519 245 21.9188C244.463 22.3623 244.194 22.9108 244.194 23.5644C244.194 24.1713 244.381 24.6849 244.755 25.105C245.152 25.5252 245.829 25.8987 246.786 26.2255L248.642 26.8908C250.44 27.521 251.782 28.2096 252.669 28.9566C253.556 29.7035 254 30.8007 254 32.2479C254 33.8352 253.311 35.1074 251.934 36.0644C250.556 37.0215 249.015 37.5 247.311 37.5C245.7 37.5 244.229 37.0682 242.899 36.2045C241.568 35.3408 240.704 34.1853 240.307 32.7381L242.758 32.0728C243.062 32.9832 243.646 33.7185 244.509 34.2787C245.373 34.8156 246.307 35.084 247.311 35.084C248.292 35.084 249.167 34.8273 249.938 34.3137C250.708 33.7768 251.093 33.0882 251.093 32.2479C251.093 31.5243 250.848 30.929 250.358 30.4622C249.868 29.9953 249.12 29.5868 248.117 29.2367L246.015 28.5014C244.334 27.8945 243.132 27.2176 242.408 26.4706C241.684 25.7236 241.323 24.7666 241.323 23.5994C241.323 22.2456 241.883 21.1134 243.004 20.2031C244.148 19.2927 245.525 18.8375 247.136 18.8375C250.054 18.8375 252.132 20.1331 253.37 22.7241L250.813 23.3894Z" fill="white"/>
<path d="M52.3086 27.8906L29.6929 50L27.6928 46.875L49.0778 25.3125V25.2344L32.5391 8.20313L33.7699 4.6875L53.3086 25.0781L52.3086 27.8906Z" fill="white"/>
<path fill-rule="evenodd" clip-rule="evenodd" d="M16.984 35C17.2228 34.2032 17.5413 33.4861 17.8597 32.7689C19.213 29.9801 21.0439 27.51 23.0341 25.1992C25.6611 22.251 28.6066 19.6215 31.95 17.4701C33.3829 16.5139 34.8955 15.7171 36.5672 15.1594C36.6468 15.0797 36.806 15.0797 36.9652 15L36.0099 16.1952C34.9751 17.4701 33.8606 18.745 32.9849 20.1793C32.9053 20.3387 32.8257 20.3387 32.6665 20.3387C32.0296 20.498 31.3132 20.6574 30.5967 20.6574C30.8355 20.9761 31.2336 21.1355 31.552 21.2948C31.7112 21.3745 32.0296 21.3745 32.1092 21.6136C32.1092 21.7729 31.8704 22.012 31.7908 22.1713C31.6316 22.5697 31.3132 22.8088 30.9151 22.8884C30.2783 23.0478 29.6414 23.2072 28.925 23.2072C28.925 23.3665 29.0046 23.3665 29.0842 23.4462C29.4822 23.7649 29.9599 24.004 30.4375 24.1633C30.5967 24.243 30.5967 24.3227 30.5171 24.4821C30.3579 24.8805 30.0395 25.0398 29.6414 25.1195C28.6066 25.4382 27.5717 25.6773 26.5368 25.757H26.4572C26.696 25.996 26.9348 26.1554 27.1736 26.3147C27.6513 26.5538 28.1289 26.7131 28.6862 26.8725C28.7658 26.8725 28.8454 26.9522 28.7658 27.0319C28.3677 27.5896 27.9697 28.1474 27.4125 28.5458C27.0144 28.9442 26.5368 28.9442 25.9795 28.9442H24.1486C23.671 28.9442 23.1933 28.9442 22.7157 29.0239C22.3177 29.1036 21.9992 29.2629 21.7604 29.5817C20.9643 30.4582 20.4867 31.5737 19.9295 32.6096L19.6906 33.0876C19.5314 33.7251 19.1334 34.0438 18.5762 34.2829C18.0985 34.3625 17.5413 34.6813 16.984 35Z" fill="white"/>
<path opacity="0.98" d="M0.923092 22.1875L23.5388 0L25.5389 3.125L4.15391 24.7656V24.8438L20.7696 41.7969L19.5388 45.3125L0 25L0.923092 22.1875Z" fill="white"/>
</svg>
