<svg width="28" height="20" viewBox="0 0 28 20" fill="none" xmlns="http://www.w3.org/2000/svg">
<path d="M15.7936 10C15.7936 14.4183 12.2579 18 7.89678 18C3.53561 18 0 14.4183 0 10C0 5.58171 3.53561 2 7.89678 2C12.2579 2 15.7936 5.58171 15.7936 10Z" fill="#DDDDDD"/>
<path d="M24.4565 9.99882C24.4565 14.158 22.6887 17.5294 20.508 17.5294C18.3273 17.5294 16.5594 14.1577 16.5594 9.99882C16.5594 5.83995 18.3273 2.46826 20.508 2.46826C22.6887 2.46826 24.4565 5.83995 24.4565 9.99882Z" fill="#DDDDDD"/>
<path d="M27.9999 10.0016C27.9999 13.728 27.3783 16.7487 26.6112 16.7487C25.8442 16.7487 25.2225 13.728 25.2225 10.0016C25.2225 6.27515 25.8442 3.25439 26.6112 3.25439C27.3783 3.25439 27.9999 6.27515 27.9999 10.0016Z" fill="#DDDDDD"/>
</svg>
