<svg width="128" height="120" viewBox="0 0 128 120" fill="none" xmlns="http://www.w3.org/2000/svg">
<path d="M125.599 66.9372L71.2957 120L66.4934 112.5L117.841 60.7497V60.5623L78.1298 19.6872L81.085 11.2497L128 60.1872L125.599 66.9372Z" fill="white"/>
<path fill-rule="evenodd" clip-rule="evenodd" d="M40.7804 84C41.3538 82.0876 42.1184 80.3665 42.883 78.6454C46.1324 71.9522 50.5287 66.0239 55.3073 60.4781C61.6151 53.4024 68.6874 47.0916 76.7154 41.9283C80.156 39.6334 83.7878 37.7211 87.8018 36.3824C87.9929 36.1912 88.3752 36.1912 88.7575 36L86.4638 38.8685C83.9789 41.9283 81.3029 44.988 79.2003 48.4303C79.0092 48.8127 78.818 48.8127 78.4357 48.8127C76.9066 49.1952 75.1863 49.5777 73.466 49.5777C74.0394 50.3426 74.9951 50.7251 75.7597 51.1075C76.142 51.2988 76.9066 51.2988 77.0977 51.8725C77.0977 52.255 76.5243 52.8287 76.3331 53.2111C75.9508 54.1673 75.1863 54.741 74.2305 54.9322C72.7014 55.3147 71.1723 55.6972 69.452 55.6972C69.452 56.0797 69.6431 56.0797 69.8342 56.2709C70.79 57.0358 71.9368 57.6095 73.0837 57.992C73.466 58.1832 73.466 58.3745 73.2748 58.7569C72.8926 59.7131 72.128 60.0956 71.1723 60.2868C68.6874 61.0518 66.2025 61.6255 63.7177 61.8167H63.5265C64.0999 62.3904 64.6734 62.7729 65.2468 63.1553C66.3937 63.7291 67.5405 64.1115 68.8785 64.494C69.0697 64.494 69.2608 64.6852 69.0697 64.8765C68.114 66.2151 67.1582 67.5538 65.8202 68.5099C64.8645 69.4661 63.7177 69.4661 62.3797 69.4661H57.9833C56.8365 69.4661 55.6896 69.4661 54.5428 69.6573C53.587 69.8486 52.8225 70.231 52.249 70.996C50.3376 73.0996 49.1907 75.7769 47.8527 78.2629L47.2793 79.4103C46.897 80.9402 45.9413 81.7052 44.6033 82.2789C43.4564 82.4701 42.1184 83.235 40.7804 84Z" fill="white"/>
<path opacity="0.98" d="M2.21645 53.25L56.5194 0L61.3217 7.5L9.97401 59.4375V59.625L49.8701 100.313L46.9148 108.75L0 60L2.21645 53.25Z" fill="white"/>
</svg>
