<svg width="22" height="20" viewBox="0 0 22 20" fill="none" xmlns="http://www.w3.org/2000/svg">
<path fill-rule="evenodd" clip-rule="evenodd" d="M22 9.80199C22 8.21783 20.8083 6.93069 19.3417 6.93069C18.7 6.93069 18.15 7.12871 17.6917 7.52475C16.0417 6.43564 14.025 5.74257 11.825 5.64356L12.925 1.78218L16.0417 2.57425C16.1333 3.76237 17.05 4.75247 18.2417 4.75247C19.4333 4.75247 20.4417 3.66336 20.4417 2.37624C20.4417 1.08911 19.4333 0 18.2417 0C17.4167 0 16.6833 0.495049 16.3167 1.28713L12.65 0.396039C12.375 0.297029 12.0083 0.495049 11.9167 0.792078L10.5417 5.64356C8.25 5.74257 5.95833 6.33663 4.30833 7.52475C3.85 7.12871 3.3 6.93069 2.65833 6.93069C1.19167 6.93069 0 8.21783 0 9.80199C0 10.7921 0.458333 11.6832 1.1 12.1782C1.1 12.3762 1.1 12.6733 1.1 12.8713C1.1 14.8515 2.2 16.6337 4.125 18.0198C5.95833 19.3069 8.43333 20 11 20C13.5667 20 16.0417 19.3069 17.875 18.0198C19.8 16.6337 20.9 14.8515 20.9 12.8713C20.9 12.6733 20.9 12.4753 20.9 12.2772C21.5417 11.6832 22 10.7921 22 9.80199ZM18.3333 1.28713C18.8833 1.28713 19.3417 1.78218 19.3417 2.37624C19.3417 2.97029 18.8833 3.46534 18.3333 3.46534C17.7833 3.46534 17.325 2.97029 17.325 2.37624C17.325 1.78218 17.7833 1.28713 18.3333 1.28713ZM6.23333 11.5842C6.23333 10.6931 6.96667 10 7.7 10C8.525 10 9.16667 10.7921 9.16667 11.5842C9.16667 12.3762 8.525 13.1683 7.7 13.1683C6.96667 13.1683 6.23333 12.4753 6.23333 11.5842ZM14.6667 16.2376C13.9333 17.0297 12.7417 17.4257 11.0917 17.4257C9.44167 17.4257 8.25 17.0297 7.51667 16.2376C7.24167 15.9406 7.24167 15.5446 7.51667 15.3465C7.79167 15.0495 8.15833 15.0495 8.34167 15.3465C8.89167 15.9406 9.80833 16.2376 11.0917 16.2376C12.375 16.2376 13.2917 15.9406 13.8417 15.3465C14.1167 15.0495 14.4833 15.0495 14.6667 15.3465C14.85 15.6436 14.85 16.0396 14.6667 16.2376ZM14.3 13.1683C13.475 13.1683 12.7417 12.4753 12.7417 11.5842C12.7417 10.6931 13.475 10 14.3 10C15.125 10 15.7667 10.7921 15.7667 11.5842C15.7667 12.3762 15.125 13.1683 14.3 13.1683Z" fill="#DDDDDD"/>
</svg>
