<svg width="20" height="16" viewBox="0 0 20 16" fill="none" xmlns="http://www.w3.org/2000/svg">
<path fill-rule="evenodd" clip-rule="evenodd" d="M19.9597 0.336053C19.9436 0.264395 19.9081 0.198162 19.8571 0.144058C19.806 0.089963 19.7411 0.049913 19.6689 0.0279756C19.4062 -0.0225216 19.1343 -0.00381856 18.8815 0.0821521C18.8815 0.0821521 1.35842 6.19438 0.357654 6.87119C0.142668 7.01673 0.0701721 7.10164 0.0343411 7.2011C-0.138981 7.68626 0.400151 7.89488 0.400151 7.89488L4.91653 9.32287C4.99289 9.33613 5.07142 9.33168 5.14568 9.30993C6.17229 8.68003 15.4783 2.97533 16.0191 2.78369C16.1025 2.75943 16.1666 2.78369 16.15 2.84434C15.935 3.57612 7.89301 10.5083 7.84885 10.5503C7.82733 10.5674 7.81057 10.5895 7.80009 10.6144C7.78962 10.6394 7.78575 10.6666 7.78885 10.6934L7.36721 14.9726C7.36721 14.9726 7.19055 16.3043 8.56294 14.9726C9.53621 14.0273 10.4703 13.2446 10.937 12.8637C12.4902 13.9044 14.1609 15.0551 14.8817 15.6575C15.0029 15.7713 15.1466 15.8603 15.3041 15.9191C15.4616 15.9778 15.6297 16.0052 15.7983 15.9995C16.006 15.9749 16.201 15.8896 16.3574 15.7548C16.5139 15.62 16.6243 15.4422 16.6741 15.2451C16.6741 15.2451 19.8656 2.77399 19.9722 1.10342C19.983 0.941696 19.9972 0.834961 19.9989 0.722565C20.0041 0.592598 19.9909 0.462551 19.9597 0.336053Z" fill="#DDDDDD"/>
</svg>
