<svg width="25" height="20" viewBox="0 0 25 20" fill="none" xmlns="http://www.w3.org/2000/svg">
<path fill-rule="evenodd" clip-rule="evenodd" d="M24.9496 0.419761C24.9294 0.330188 24.8852 0.247397 24.8213 0.179768C24.7575 0.112149 24.6763 0.062086 24.5861 0.0346643C24.2577 -0.0284572 23.9178 -0.00507837 23.6018 0.102385C23.6018 0.102385 1.69803 7.74267 0.447067 8.58868C0.178335 8.77061 0.0877152 8.87674 0.0429264 9.00106C-0.173726 9.60752 0.500189 9.86829 0.500189 9.86829L6.14566 11.6533C6.24112 11.6699 6.33928 11.6643 6.43211 11.6371C7.71536 10.8497 19.3479 3.71886 20.0239 3.47931C20.1281 3.44899 20.2083 3.47931 20.1875 3.55512C19.9187 4.46985 9.86626 13.135 9.81106 13.1876C9.78416 13.2089 9.76322 13.2365 9.75011 13.2678C9.73702 13.299 9.73219 13.3329 9.73606 13.3665L9.20901 18.7154C9.20901 18.7154 8.98819 20.3801 10.7037 18.7154C11.9203 17.5338 13.0879 16.5554 13.6712 16.0794C15.6127 17.3802 17.7011 18.8185 18.6021 19.5715C18.7537 19.7138 18.9333 19.8251 19.1301 19.8986C19.327 19.972 19.5372 20.0062 19.7479 19.9991C20.0075 19.9683 20.2513 19.8617 20.4468 19.6932C20.6424 19.5247 20.7804 19.3025 20.8426 19.056C20.8426 19.056 24.8319 3.46718 24.9653 1.37897C24.9788 1.17682 24.9965 1.0434 24.9986 0.902901C25.0052 0.740443 24.9886 0.577883 24.9496 0.419761Z" fill="#DDDDDD"/>
</svg>
