<svg width="20" height="20" viewBox="0 0 20 20" fill="none" xmlns="http://www.w3.org/2000/svg">
<path d="M18.5624 17.9597L11.862 8.44514L11.1044 7.36913L6.3098 0.564339L5.91249 0H0.0236206L1.45964 2.04014L7.83339 11.0907L8.59097 12.1651L13.7122 19.4371L14.1095 19.9998H20L18.5624 17.9597ZM14.8081 18.6967L9.48825 11.1417L8.73067 10.0657L2.55729 1.30139H5.21218L10.2054 8.39084L10.963 9.46682L17.4647 18.6984H14.8081V18.6967Z" fill="#DDDDDD"/>
<path d="M8.73064 10.0676L9.48822 11.1436L8.59093 12.1653L1.69865 20H0L7.83335 11.091L8.73064 10.0676Z" fill="#DDDDDD"/>
<path d="M19.2896 0L11.862 8.44514L10.963 9.46682L10.2054 8.39084L11.1044 7.36913L16.1364 1.64528L17.591 0H19.2896Z" fill="#DDDDDD"/>
</svg>
