<svg width="26" height="20" viewBox="0 0 26 20" fill="none" xmlns="http://www.w3.org/2000/svg">
<path fill-rule="evenodd" clip-rule="evenodd" d="M25.7833 4.28571C25.7833 4.28571 25.5667 2.2619 24.7 1.42857C23.725 0.238095 22.6417 0.238095 22.1 0.238095C18.4167 5.32183e-08 13 0 13 0C13 0 7.58333 5.32183e-08 3.9 0.238095C3.35833 0.357142 2.275 0.357143 1.3 1.42857C0.541667 2.2619 0.216667 4.28571 0.216667 4.28571C0.216667 4.28571 0 6.54761 0 8.92859V11.0714C0 13.3333 0.216667 15.7143 0.216667 15.7143C0.216667 15.7143 0.433333 17.7381 1.3 18.5714C2.275 19.7619 3.575 19.6429 4.11667 19.7619C6.175 20 13 20 13 20C13 20 18.4167 20 22.1 19.6429C22.6417 19.5238 23.725 19.5238 24.7 18.4524C25.4583 17.6191 25.7833 15.5952 25.7833 15.5952C25.7833 15.5952 26 13.3333 26 10.9524V8.80954C26 6.54761 25.7833 4.28571 25.7833 4.28571ZM10.2917 13.6905V5.71427L17.3333 9.76192L10.2917 13.6905Z" fill="#DDDDDD"/>
</svg>
